<mxfile host="app.diagrams.net" modified="2023-08-29T17:51:35.251Z" agent="Mozilla/5.0 (Windows NT 10.0; Win64; x64) AppleWebKit/537.36 (KHTML, like Gecko) Chrome/116.0.0.0 Safari/537.36 Edg/116.0.1938.62" etag="UCq_5BChEaaZLQlMBEFV" version="21.6.9" type="github">
  <diagram name="Page-1" id="TxyZuQSa3MDR7INI-T3q">
    <mxGraphModel dx="1195" dy="637" grid="1" gridSize="10" guides="1" tooltips="1" connect="1" arrows="1" fold="1" page="1" pageScale="1" pageWidth="850" pageHeight="1100" math="0" shadow="0">
      <root>
        <mxCell id="0" />
        <mxCell id="1" parent="0" />
        <mxCell id="WdxqnXTOeWCwxLcZLhfS-5" style="edgeStyle=orthogonalEdgeStyle;rounded=0;orthogonalLoop=1;jettySize=auto;html=1;exitX=0.5;exitY=1;exitDx=0;exitDy=0;entryX=0.5;entryY=0;entryDx=0;entryDy=0;" edge="1" parent="1" source="WdxqnXTOeWCwxLcZLhfS-1" target="WdxqnXTOeWCwxLcZLhfS-2">
          <mxGeometry relative="1" as="geometry" />
        </mxCell>
        <mxCell id="WdxqnXTOeWCwxLcZLhfS-1" value="Topic: Synthetic Data" style="rounded=1;whiteSpace=wrap;html=1;" vertex="1" parent="1">
          <mxGeometry x="280" y="80" width="120" height="60" as="geometry" />
        </mxCell>
        <mxCell id="WdxqnXTOeWCwxLcZLhfS-15" style="edgeStyle=orthogonalEdgeStyle;rounded=0;orthogonalLoop=1;jettySize=auto;html=1;exitX=0.5;exitY=1;exitDx=0;exitDy=0;entryX=0.25;entryY=0.25;entryDx=0;entryDy=0;entryPerimeter=0;" edge="1" parent="1" source="WdxqnXTOeWCwxLcZLhfS-2" target="WdxqnXTOeWCwxLcZLhfS-14">
          <mxGeometry relative="1" as="geometry" />
        </mxCell>
        <mxCell id="WdxqnXTOeWCwxLcZLhfS-54" style="edgeStyle=orthogonalEdgeStyle;rounded=0;orthogonalLoop=1;jettySize=auto;html=1;exitX=1;exitY=0.5;exitDx=0;exitDy=0;entryX=0;entryY=0.5;entryDx=0;entryDy=0;" edge="1" parent="1" source="WdxqnXTOeWCwxLcZLhfS-2" target="WdxqnXTOeWCwxLcZLhfS-53">
          <mxGeometry relative="1" as="geometry" />
        </mxCell>
        <mxCell id="WdxqnXTOeWCwxLcZLhfS-2" value="Case Study: illumina&lt;br&gt;&amp;nbsp;phenotype to genotype&lt;br&gt;164 vs. 92734 per mice&lt;br&gt;1 phenotype, 193real/177synthetic" style="rounded=1;whiteSpace=wrap;html=1;" vertex="1" parent="1">
          <mxGeometry x="205" y="180" width="270" height="60" as="geometry" />
        </mxCell>
        <mxCell id="WdxqnXTOeWCwxLcZLhfS-3" value="data - &lt;i&gt;&lt;u&gt;Open Source&lt;/u&gt;&lt;/i&gt;&lt;br&gt;&lt;u&gt;&lt;b&gt;nature genetic pub&lt;/b&gt;&lt;/u&gt;&lt;br&gt;replicating" style="ellipse;whiteSpace=wrap;html=1;" vertex="1" parent="1">
          <mxGeometry x="60" y="110" width="120" height="80" as="geometry" />
        </mxCell>
        <mxCell id="WdxqnXTOeWCwxLcZLhfS-4" value="" style="endArrow=classic;html=1;rounded=0;exitX=1;exitY=1;exitDx=0;exitDy=0;entryX=0;entryY=0.5;entryDx=0;entryDy=0;" edge="1" parent="1" source="WdxqnXTOeWCwxLcZLhfS-3" target="WdxqnXTOeWCwxLcZLhfS-2">
          <mxGeometry width="50" height="50" relative="1" as="geometry">
            <mxPoint x="400" y="270" as="sourcePoint" />
            <mxPoint x="450" y="220" as="targetPoint" />
          </mxGeometry>
        </mxCell>
        <mxCell id="WdxqnXTOeWCwxLcZLhfS-8" value="" style="endArrow=classic;html=1;rounded=0;" edge="1" parent="1">
          <mxGeometry width="50" height="50" relative="1" as="geometry">
            <mxPoint x="40" y="40" as="sourcePoint" />
            <mxPoint x="40" y="760" as="targetPoint" />
          </mxGeometry>
        </mxCell>
        <mxCell id="WdxqnXTOeWCwxLcZLhfS-11" value="week 1" style="text;html=1;strokeColor=none;fillColor=none;align=center;verticalAlign=middle;whiteSpace=wrap;rounded=0;rotation=90;" vertex="1" parent="1">
          <mxGeometry x="20" y="180" width="60" height="30" as="geometry" />
        </mxCell>
        <mxCell id="WdxqnXTOeWCwxLcZLhfS-12" value="Cloud Environment / Deployment:&lt;br&gt;1. Kubernetes TBD&lt;br&gt;2. GCP data science TBD" style="rounded=1;whiteSpace=wrap;html=1;fillColor=#ffe6cc;strokeColor=#d79b00;" vertex="1" parent="1">
          <mxGeometry x="50" y="300" width="220" height="60" as="geometry" />
        </mxCell>
        <mxCell id="WdxqnXTOeWCwxLcZLhfS-25" style="edgeStyle=orthogonalEdgeStyle;rounded=0;orthogonalLoop=1;jettySize=auto;html=1;exitX=0.55;exitY=0.95;exitDx=0;exitDy=0;exitPerimeter=0;entryX=0.5;entryY=0;entryDx=0;entryDy=0;" edge="1" parent="1" source="WdxqnXTOeWCwxLcZLhfS-14" target="WdxqnXTOeWCwxLcZLhfS-16">
          <mxGeometry relative="1" as="geometry" />
        </mxCell>
        <mxCell id="WdxqnXTOeWCwxLcZLhfS-56" style="edgeStyle=orthogonalEdgeStyle;rounded=0;orthogonalLoop=1;jettySize=auto;html=1;exitX=0.875;exitY=0.5;exitDx=0;exitDy=0;exitPerimeter=0;entryX=0;entryY=0.5;entryDx=0;entryDy=0;" edge="1" parent="1" source="WdxqnXTOeWCwxLcZLhfS-14" target="WdxqnXTOeWCwxLcZLhfS-55">
          <mxGeometry relative="1" as="geometry" />
        </mxCell>
        <mxCell id="WdxqnXTOeWCwxLcZLhfS-14" value="&lt;b&gt;Gretel pilot HCA&lt;/b&gt;" style="ellipse;shape=cloud;whiteSpace=wrap;html=1;fillColor=#d0cee2;strokeColor=#56517e;" vertex="1" parent="1">
          <mxGeometry x="330" y="265" width="220" height="130" as="geometry" />
        </mxCell>
        <mxCell id="WdxqnXTOeWCwxLcZLhfS-24" style="edgeStyle=orthogonalEdgeStyle;rounded=0;orthogonalLoop=1;jettySize=auto;html=1;exitX=0.5;exitY=1;exitDx=0;exitDy=0;" edge="1" parent="1" source="WdxqnXTOeWCwxLcZLhfS-16" target="WdxqnXTOeWCwxLcZLhfS-23">
          <mxGeometry relative="1" as="geometry" />
        </mxCell>
        <mxCell id="WdxqnXTOeWCwxLcZLhfS-16" value="Gretel&#39;s extension&lt;br&gt;ACTGAN (gretel)" style="rounded=1;whiteSpace=wrap;html=1;fillColor=#f8cecc;strokeColor=#b85450;" vertex="1" parent="1">
          <mxGeometry x="130" y="510" width="120" height="60" as="geometry" />
        </mxCell>
        <mxCell id="WdxqnXTOeWCwxLcZLhfS-22" style="edgeStyle=orthogonalEdgeStyle;rounded=0;orthogonalLoop=1;jettySize=auto;html=1;exitX=0.5;exitY=1;exitDx=0;exitDy=0;entryX=0.5;entryY=0;entryDx=0;entryDy=0;" edge="1" parent="1" source="WdxqnXTOeWCwxLcZLhfS-17" target="WdxqnXTOeWCwxLcZLhfS-21">
          <mxGeometry relative="1" as="geometry" />
        </mxCell>
        <mxCell id="WdxqnXTOeWCwxLcZLhfS-47" style="edgeStyle=orthogonalEdgeStyle;rounded=0;orthogonalLoop=1;jettySize=auto;html=1;exitX=0;exitY=0.5;exitDx=0;exitDy=0;entryX=1;entryY=0.5;entryDx=0;entryDy=0;" edge="1" parent="1" source="WdxqnXTOeWCwxLcZLhfS-17" target="WdxqnXTOeWCwxLcZLhfS-16">
          <mxGeometry relative="1" as="geometry" />
        </mxCell>
        <mxCell id="WdxqnXTOeWCwxLcZLhfS-62" style="edgeStyle=orthogonalEdgeStyle;rounded=0;orthogonalLoop=1;jettySize=auto;html=1;exitX=0.5;exitY=0;exitDx=0;exitDy=0;entryX=0;entryY=0.5;entryDx=0;entryDy=0;" edge="1" parent="1" source="WdxqnXTOeWCwxLcZLhfS-17" target="WdxqnXTOeWCwxLcZLhfS-59">
          <mxGeometry relative="1" as="geometry" />
        </mxCell>
        <mxCell id="WdxqnXTOeWCwxLcZLhfS-17" value="Original Algorithm: &lt;br&gt;CTGAN&lt;br&gt;&lt;u&gt;&lt;b&gt;Lei Xu, 2019&lt;/b&gt;&lt;/u&gt;&amp;nbsp;" style="rounded=1;whiteSpace=wrap;html=1;fillColor=#d5e8d4;strokeColor=#82b366;" vertex="1" parent="1">
          <mxGeometry x="327.5" y="510" width="120" height="60" as="geometry" />
        </mxCell>
        <mxCell id="WdxqnXTOeWCwxLcZLhfS-21" value="Model Implementation: &lt;br&gt;SDV.CTGAN&lt;br&gt;&lt;u&gt;&lt;i&gt;Open Source&lt;/i&gt;&lt;/u&gt;" style="rounded=1;whiteSpace=wrap;html=1;" vertex="1" parent="1">
          <mxGeometry x="310" y="630" width="155" height="60" as="geometry" />
        </mxCell>
        <mxCell id="WdxqnXTOeWCwxLcZLhfS-23" value="No Resources online" style="rounded=1;whiteSpace=wrap;html=1;" vertex="1" parent="1">
          <mxGeometry x="112.5" y="630" width="155" height="60" as="geometry" />
        </mxCell>
        <mxCell id="WdxqnXTOeWCwxLcZLhfS-33" value="" style="edgeStyle=orthogonalEdgeStyle;rounded=0;orthogonalLoop=1;jettySize=auto;html=1;" edge="1" parent="1" source="WdxqnXTOeWCwxLcZLhfS-27" target="WdxqnXTOeWCwxLcZLhfS-32">
          <mxGeometry relative="1" as="geometry" />
        </mxCell>
        <mxCell id="WdxqnXTOeWCwxLcZLhfS-27" value="GAN:&lt;br style=&quot;border-color: var(--border-color);&quot;&gt;generator + discriminator&lt;br style=&quot;border-color: var(--border-color);&quot;&gt;for image synthesis" style="ellipse;whiteSpace=wrap;html=1;" vertex="1" parent="1">
          <mxGeometry x="502.5" y="620" width="170" height="80" as="geometry" />
        </mxCell>
        <mxCell id="WdxqnXTOeWCwxLcZLhfS-34" style="edgeStyle=orthogonalEdgeStyle;rounded=0;orthogonalLoop=1;jettySize=auto;html=1;exitX=0;exitY=0.5;exitDx=0;exitDy=0;entryX=1;entryY=0.5;entryDx=0;entryDy=0;" edge="1" parent="1" source="WdxqnXTOeWCwxLcZLhfS-32" target="WdxqnXTOeWCwxLcZLhfS-17">
          <mxGeometry relative="1" as="geometry" />
        </mxCell>
        <mxCell id="WdxqnXTOeWCwxLcZLhfS-32" value="First Appeared in tabular form&lt;br&gt;TableGAN&lt;br&gt;&lt;u&gt;&lt;b&gt;Noseong Park, 2018&lt;/b&gt;&lt;/u&gt;&amp;nbsp;" style="rounded=1;whiteSpace=wrap;html=1;fillColor=#d5e8d4;strokeColor=#82b366;" vertex="1" parent="1">
          <mxGeometry x="505" y="510" width="165" height="60" as="geometry" />
        </mxCell>
        <mxCell id="WdxqnXTOeWCwxLcZLhfS-48" style="edgeStyle=orthogonalEdgeStyle;rounded=0;orthogonalLoop=1;jettySize=auto;html=1;exitX=0.5;exitY=1;exitDx=0;exitDy=0;dashed=1;" edge="1" parent="1" source="WdxqnXTOeWCwxLcZLhfS-35">
          <mxGeometry relative="1" as="geometry">
            <mxPoint x="290" y="540" as="targetPoint" />
          </mxGeometry>
        </mxCell>
        <mxCell id="WdxqnXTOeWCwxLcZLhfS-60" style="edgeStyle=orthogonalEdgeStyle;rounded=0;orthogonalLoop=1;jettySize=auto;html=1;exitX=1;exitY=0.5;exitDx=0;exitDy=0;" edge="1" parent="1" source="WdxqnXTOeWCwxLcZLhfS-35" target="WdxqnXTOeWCwxLcZLhfS-59">
          <mxGeometry relative="1" as="geometry" />
        </mxCell>
        <mxCell id="WdxqnXTOeWCwxLcZLhfS-35" value="Most Advanced&lt;br&gt;CTAB-GAN&lt;br&gt;&lt;u style=&quot;border-color: var(--border-color);&quot;&gt;&lt;b style=&quot;border-color: var(--border-color);&quot;&gt;Zilong Zhao, 2021&lt;/b&gt;&lt;/u&gt;&amp;nbsp;" style="rounded=1;whiteSpace=wrap;html=1;fillColor=#d5e8d4;strokeColor=#82b366;" vertex="1" parent="1">
          <mxGeometry x="230" y="420" width="120" height="60" as="geometry" />
        </mxCell>
        <mxCell id="WdxqnXTOeWCwxLcZLhfS-50" style="edgeStyle=orthogonalEdgeStyle;rounded=0;orthogonalLoop=1;jettySize=auto;html=1;exitX=0;exitY=0.5;exitDx=0;exitDy=0;entryX=1;entryY=0.5;entryDx=0;entryDy=0;" edge="1" parent="1" source="WdxqnXTOeWCwxLcZLhfS-49" target="WdxqnXTOeWCwxLcZLhfS-1">
          <mxGeometry relative="1" as="geometry" />
        </mxCell>
        <mxCell id="WdxqnXTOeWCwxLcZLhfS-49" value="ethical background &lt;br&gt;synthetic ML med/health&lt;br&gt;&lt;u&gt;&lt;b&gt;Richard J. Chen, 2021&lt;/b&gt;&lt;/u&gt;&amp;nbsp;" style="rounded=1;whiteSpace=wrap;html=1;fillColor=#d5e8d4;strokeColor=#82b366;" vertex="1" parent="1">
          <mxGeometry x="475" y="80" width="165" height="60" as="geometry" />
        </mxCell>
        <mxCell id="WdxqnXTOeWCwxLcZLhfS-51" value="week 2" style="text;html=1;strokeColor=none;fillColor=none;align=center;verticalAlign=middle;whiteSpace=wrap;rounded=0;rotation=90;" vertex="1" parent="1">
          <mxGeometry x="20" y="580" width="60" height="30" as="geometry" />
        </mxCell>
        <mxCell id="WdxqnXTOeWCwxLcZLhfS-52" value="Algorithms" style="text;html=1;strokeColor=none;fillColor=none;align=center;verticalAlign=middle;whiteSpace=wrap;rounded=0;" vertex="1" parent="1">
          <mxGeometry x="260" y="365" width="60" height="30" as="geometry" />
        </mxCell>
        <mxCell id="WdxqnXTOeWCwxLcZLhfS-53" value="&lt;span style=&quot;background-color: initial;&quot;&gt;Evaluations in case study&lt;br&gt;1. Correlation&lt;br&gt;2. PCA distribution view&lt;br&gt;*FROM generated DATA&lt;br&gt;&lt;/span&gt;" style="rounded=1;whiteSpace=wrap;html=1;fillColor=#ffe6cc;strokeColor=#d79b00;" vertex="1" parent="1">
          <mxGeometry x="540" y="180" width="170" height="60" as="geometry" />
        </mxCell>
        <mxCell id="WdxqnXTOeWCwxLcZLhfS-55" value="Assess GAN &lt;br&gt;pre-trained model" style="rounded=1;whiteSpace=wrap;html=1;" vertex="1" parent="1">
          <mxGeometry x="630" y="300" width="120" height="60" as="geometry" />
        </mxCell>
        <mxCell id="WdxqnXTOeWCwxLcZLhfS-57" value="Evaluation" style="text;html=1;strokeColor=none;fillColor=none;align=center;verticalAlign=middle;whiteSpace=wrap;rounded=0;" vertex="1" parent="1">
          <mxGeometry x="550" y="304" width="60" height="30" as="geometry" />
        </mxCell>
        <mxCell id="WdxqnXTOeWCwxLcZLhfS-61" style="edgeStyle=orthogonalEdgeStyle;rounded=0;orthogonalLoop=1;jettySize=auto;html=1;exitX=0;exitY=0.5;exitDx=0;exitDy=0;entryX=1;entryY=0.5;entryDx=0;entryDy=0;" edge="1" parent="1" source="WdxqnXTOeWCwxLcZLhfS-58" target="WdxqnXTOeWCwxLcZLhfS-55">
          <mxGeometry relative="1" as="geometry" />
        </mxCell>
        <mxCell id="WdxqnXTOeWCwxLcZLhfS-64" style="edgeStyle=orthogonalEdgeStyle;rounded=0;orthogonalLoop=1;jettySize=auto;html=1;exitX=0.5;exitY=1;exitDx=0;exitDy=0;entryX=1;entryY=0.5;entryDx=0;entryDy=0;" edge="1" parent="1" source="WdxqnXTOeWCwxLcZLhfS-58" target="WdxqnXTOeWCwxLcZLhfS-59">
          <mxGeometry relative="1" as="geometry" />
        </mxCell>
        <mxCell id="WdxqnXTOeWCwxLcZLhfS-58" value="New strategies from &lt;br&gt;generative synthesis&lt;br&gt;&lt;u&gt;&lt;b&gt;Ahmed M. Alaa, 2022&lt;/b&gt;&lt;/u&gt;" style="rounded=1;whiteSpace=wrap;html=1;fillColor=#d5e8d4;strokeColor=#82b366;" vertex="1" parent="1">
          <mxGeometry x="780" y="300" width="160" height="60" as="geometry" />
        </mxCell>
        <mxCell id="WdxqnXTOeWCwxLcZLhfS-63" style="edgeStyle=orthogonalEdgeStyle;rounded=0;orthogonalLoop=1;jettySize=auto;html=1;exitX=0.5;exitY=0;exitDx=0;exitDy=0;entryX=0.5;entryY=1;entryDx=0;entryDy=0;" edge="1" parent="1" source="WdxqnXTOeWCwxLcZLhfS-59" target="WdxqnXTOeWCwxLcZLhfS-55">
          <mxGeometry relative="1" as="geometry" />
        </mxCell>
        <mxCell id="WdxqnXTOeWCwxLcZLhfS-59" value="evaluation metrics&lt;br&gt;*Utility*&lt;br&gt;1. individual dist&lt;br&gt;2. missing value&lt;br&gt;3. KS test&lt;br&gt;4. pairwise correlation&lt;br&gt;5. classifier (ML)" style="rounded=1;whiteSpace=wrap;html=1;fillColor=#ffe6cc;strokeColor=#d79b00;" vertex="1" parent="1">
          <mxGeometry x="610" y="400" width="160" height="100" as="geometry" />
        </mxCell>
      </root>
    </mxGraphModel>
  </diagram>
</mxfile>
